<?xml version="1.0"?>
<svg xmlns="http://www.w3.org/2000/svg" xmlns:xlink="http://www.w3.org/1999/xlink" xmlns:svgjs="http://svgjs.com/svgjs" version="1.1" width="512" height="512" x="0" y="0" viewBox="0 0 512 512" style="enable-background:new 0 0 512 512" xml:space="preserve" class=""><rect width="512" height="512" fill="#3cb5ce" shape="square"/><g transform="matrix(0.8,0,0,0.8,51.20006561279297,51.200097656249994)"><g><g><path d="m365.451 189.052-116 64.832v130.45l6.539 5.564c2.352 0 4.704-.608 6.812-1.825l104.159-60.136c4.215-2.434 6.812-6.932 6.812-11.799v-120.274c0-2.434-.649-4.775-1.825-6.812z" fill="#e39b74" data-original="#e39b74" class=""/><path d="m175.237 204.391-2.12 1.275-2.667 5.965v130.986l78.727 45.453c2.108 1.217 4.46 1.825 6.812 1.825v-136.012l-2.539-5.921z" fill="#da7e4a" data-original="#da7e4a" class=""/><path d="m173.526 340.101v-125.035c0-3.59 1.364-6.982 3.719-9.556l-29.544-16.458h-7.669c-1.176 2.037-1.825 4.378-1.825 6.812v120.273c0 4.867 2.597 9.365 6.812 11.799l29.342 16.941c-.541-1.511-.835-3.122-.835-4.776z" fill="#cb6c35" data-original="#cb6c35" class=""/><circle cx="255.99" cy="41" fill="#ff84ab" r="33.5" data-original="#ff5595" class=""/><circle cx="255.99" cy="471" fill="#addbff" r="33.5" data-original="#60b9fe" class=""/><circle cx="69.795" cy="148.5" fill="#5651a9" r="33.5" data-original="#938493" class=""/><circle cx="442.186" cy="363.5" fill="#c9fd73" r="33.5" data-original="#a2e82d" class=""/><circle cx="69.795" cy="363.5" fill="#f79109" r="33.5" data-original="#8479c2" class=""/><circle cx="442.186" cy="148.5" fill="#ffe965" r="33.5" data-original="#ffc365" class=""/><path d="m255.99 41c0-12.398 6.74-23.214 16.75-29.007-4.928-2.852-10.646-4.493-16.75-4.493-18.501 0-33.5 14.998-33.5 33.5s14.999 33.5 33.5 33.5c6.104 0 11.822-1.641 16.75-4.493-10.01-5.793-16.75-16.609-16.75-29.007z" fill="#ff3581" data-original="#ff3581" class=""/><path d="m255.99 471c0-12.398 6.74-23.214 16.75-29.007-4.928-2.852-10.646-4.493-16.75-4.493-18.501 0-33.5 14.998-33.5 33.5s14.999 33.5 33.5 33.5c6.104 0 11.822-1.641 16.75-4.493-10.01-5.793-16.75-16.609-16.75-29.007z" fill="#45b8ff" data-original="#1ca8ff" class=""/><path d="m74.283 131.75c3.052-5.286 7.332-9.417 12.266-12.259-.001-.001-.003-.002-.004-.002-16.023-9.251-36.511-3.761-45.762 12.262s-3.761 36.511 12.262 45.762c10.737 6.199 23.474 5.77 33.496-.002-16.02-9.253-21.508-29.74-12.258-45.761z" fill="#1f003d" data-original="#7b6c79" class=""/><path d="m446.674 346.75c3.052-5.286 7.331-9.417 12.266-12.259-.001-.001-.003-.002-.004-.002-16.023-9.251-36.511-3.761-45.762 12.262s-3.761 36.511 12.262 45.762c10.737 6.199 23.474 5.77 33.496-.002-16.02-9.253-21.508-29.74-12.258-45.761z" fill="#9ee328" data-original="#98d829" class=""/><path d="m74.283 380.25c-9.25-16.021-3.762-36.508 12.258-45.759-10.022-5.773-22.759-6.201-33.496-.002-16.023 9.251-21.513 29.739-12.262 45.762s29.739 21.513 45.762 12.262c.001-.001.003-.002.004-.002-4.935-2.844-9.214-6.975-12.266-12.261z" fill="#f16a6a" data-original="#6e60b8" class=""/><path d="m446.674 165.25c-9.25-16.021-3.762-36.508 12.258-45.759-10.022-5.773-22.76-6.201-33.496-.002-16.023 9.251-21.513 29.739-12.262 45.762s29.739 21.513 45.762 12.262c.001-.001.003-.002.004-.002-4.935-2.844-9.214-6.975-12.266-12.261z" fill="#ffc059" data-original="#ffb640" class=""/><path d="m366.962 184.065-80.584-46.526-113.26 68.127-.884 1.977 76.914 44.406c4.234 2.444 9.45 2.444 13.684 0l109.116-62.998c-1.176-2.037-2.879-3.769-4.986-4.986z" fill="#dd8858" data-original="#dd8858" class=""/><path d="m180.608 202.8 108.283-62.517c.388-.224.786-.421 1.189-.605l-27.278-15.749c-4.215-2.434-9.409-2.434-13.624 0l-33.971 19.613-1.19 2.833-24.44 15-6.995 1.004-37.562 21.686c-2.108 1.217-3.811 2.95-4.987 4.987l34.8 20.092c1.205-2.618 3.195-4.855 5.775-6.344z" fill="#da7e4a" data-original="#da7e4a" class=""/><path d="m332.838 211.632h-3.637l-27 15.118-2 3.725v50.254c0 2.739 2.965 4.451 5.337 3.082l23.934-13.818c2.089-1.206 3.375-3.435 3.375-5.847v-52.507z" fill="#5651a9" data-original="#938493" class=""/><path d="m332.838 211.632-86.448-50.04-31.958 19.223 85.769 49.647v.013z" fill="#1f003d" data-original="#7b6c79" class=""/><path d="m249.182 163.208-33.975-19.666-32.627 18.837 33.976 19.666z" fill="#5651a9" data-original="#665e68" class=""/></g><g><path d="m462.684 184.007c19.625-11.33 26.338-36.38 15.007-56.007-11.329-19.624-36.38-26.339-56.007-15.007-4.096 2.365-7.686 5.36-10.673 8.849l-116.37-67.186c1.515-4.275 2.347-8.869 2.347-13.656 0-22.607-18.393-41-41-41s-41 18.393-41 41c0 4.787.833 9.381 2.347 13.656l-116.37 67.186c-2.988-3.489-6.577-6.484-10.673-8.848-19.578-11.305-44.702-4.573-56.007 15.006-11.304 19.579-4.57 44.704 15.008 56.006 4.096 2.365 8.485 3.967 13 4.81v134.358c-4.516.843-8.904 2.454-13 4.819-19.578 11.303-26.311 36.427-15.008 56.007 11.307 19.584 36.435 26.308 56.008 15.007 4.096-2.365 7.685-5.36 10.673-8.848l116.37 67.186c-1.515 4.274-2.347 8.869-2.347 13.656 0 22.607 18.393 41 41 41s41-18.393 41-41c0-4.787-.833-9.382-2.347-13.656l116.358-67.181c2.732 3.164 5.993 5.975 9.768 8.286 3.529 2.161 8.148 1.053 10.312-2.48 2.163-3.533 1.053-8.15-2.48-10.313-11.907-7.29-16.134-22.684-8.933-35.157 7.233-12.527 23.16-16.651 35.517-9.517 6.015 3.473 10.316 9.079 12.114 15.787 3.104 11.588-2.123 23.155-11.525 28.902-3.534 2.161-4.648 6.777-2.488 10.311 2.161 3.535 6.777 4.647 10.311 2.488 14.929-9.125 23.065-27.397 18.191-45.583-2.834-10.578-9.618-19.419-19.103-24.895-4.096-2.365-8.484-3.976-13-4.819v-134.358c4.515-.843 8.904-2.445 13-4.809zm-33.5-58.024c12.464-7.195 28.337-2.919 35.517 9.517 7.185 12.444 2.93 28.331-9.517 35.517-12.359 7.134-28.283 3.011-35.517-9.517-7.229-12.521-2.846-28.38 9.517-35.517zm-173.196-110.983c14.337 0 26 11.664 26 26s-11.663 26-26 26-26-11.664-26-26 11.663-26 26-26zm-208.713 120.5c7.17-12.419 23.105-16.683 35.518-9.517 12.357 7.134 16.748 22.991 9.517 35.517-7.243 12.545-23.177 16.641-35.517 9.517-12.416-7.168-16.686-23.101-9.518-35.517zm35.518 250.517c-12.416 7.167-28.349 2.899-35.518-9.516-7.168-12.417-2.898-28.349 9.518-35.517 12.326-7.115 28.268-3.037 35.517 9.517 7.228 12.519 2.844 28.38-9.517 35.516zm173.195 110.983c-14.337 0-26-11.664-26-26s11.663-26 26-26 26 11.664 26 26-11.663 26-26 26zm150.689-154c-6.28 10.877-7.09 23.313-3.225 34.201l-116.332 67.164c-7.525-8.783-18.685-14.365-31.132-14.365s-23.607 5.582-31.132 14.366l-116.414-67.211c4.087-11.638 2.782-23.892-3.143-34.154-5.476-9.484-14.317-16.269-24.896-19.103-1.033-.277-2.071-.5-3.111-.695v-134.405c12.074-2.266 22.062-9.502 28.007-19.798 5.928-10.267 7.227-22.521 3.143-34.154l116.414-67.211c7.525 8.783 18.686 14.365 31.132 14.365s23.606-5.582 31.132-14.365l116.414 67.211c-4.074 11.584-2.804 23.854 3.143 34.154 5.961 10.325 15.964 17.538 28.007 19.798v134.403c-12.074 2.266-22.062 9.502-28.007 19.799z" fill="#000000" data-original="#000000" class=""/><path d="m370.709 177.569-104.159-60.136c-6.515-3.762-14.607-3.762-21.124 0l-104.16 60.137c-6.473 3.739-10.562 10.688-10.562 18.294v120.272c0 7.551 4.096 14.559 10.562 18.294 3.739 2.159 99.913 57.684 104.159 60.136 6.627 3.827 14.747 3.683 21.124 0l104.159-60.136c6.516-3.762 10.562-10.771 10.562-18.294v-32.785c0-4.142-3.357-7.5-7.5-7.5s-7.5 3.358-7.5 7.5v32.785c0 2.181-1.174 4.213-3.062 5.304l-99.721 57.574v-119.017c1.059-.4 2.095-.877 3.092-1.452l26.118-15.079v37.263c0 8.555 9.292 13.791 16.588 9.577l23.935-13.818c4.395-2.538 7.125-7.267 7.125-12.342v-48.189l25.926-14.968v47.363c0 4.142 3.357 7.5 7.5 7.5s7.5-3.358 7.5-7.5v-52.488c.001-7.627-4.133-14.586-10.562-18.295zm-70.495 44.237-102.65-59.419 17.635-10.182 102.651 59.418c-7.376 4.259-3.006 1.737-17.636 10.183zm-54.818 36.739c1 .577 2.353 1.185 3.093 1.465v119.004l-99.722-57.575c-1.892-1.093-3.062-3.127-3.062-5.304v-115.147zm13.684-12.99c-1.908 1.102-4.284 1.097-6.185 0l-99.69-57.557 29.369-16.956 102.65 59.419zm66.266-20.938v39.096l-17.647 10.188v-39.096l17.329-10.005zm7.495-21.648-102.651-59.419 22.735-13.126c1.891-1.09 4.236-1.09 6.125 0l99.722 57.575z" fill="#000000" data-original="#000000" class=""/></g></g></g></svg>
